<svg xmlns="http://www.w3.org/2000/svg" viewBox="0 0 1600 920" role="img" aria-labelledby="title desc">
  <title id="title">Tarnished's Arsenal war room overview</title>
  <desc id="desc">Stylized overview of the build optimizer interface with a left build rail, ranked result cards, and a comparison panel.</desc>
  <defs>
    <linearGradient id="bg" x1="0" x2="1" y1="0" y2="1">
      <stop offset="0%" stop-color="#0c1017"/>
      <stop offset="100%" stop-color="#06080d"/>
    </linearGradient>
    <linearGradient id="gold" x1="0" x2="1" y1="0" y2="0">
      <stop offset="0%" stop-color="#8f6a24"/>
      <stop offset="50%" stop-color="#d4b15a"/>
      <stop offset="100%" stop-color="#8f6a24"/>
    </linearGradient>
    <linearGradient id="panel" x1="0" x2="0" y1="0" y2="1">
      <stop offset="0%" stop-color="#141b26"/>
      <stop offset="100%" stop-color="#0f151f"/>
    </linearGradient>
    <filter id="glow" x="-20%" y="-20%" width="140%" height="140%">
      <feDropShadow dx="0" dy="0" stdDeviation="12" flood-color="#d4b15a" flood-opacity="0.18"/>
    </filter>
  </defs>

  <rect width="1600" height="920" fill="url(#bg)"/>
  <rect x="24" y="24" width="1552" height="872" rx="22" fill="#0a0e15" stroke="#243043" stroke-width="2"/>

  <rect x="52" y="64" width="300" height="792" rx="18" fill="url(#panel)" stroke="#2c3a4c"/>
  <rect x="376" y="64" width="1172" height="160" rx="18" fill="#101722" stroke="#8f6a24" stroke-width="2" filter="url(#glow)"/>
  <rect x="376" y="248" width="1172" height="608" rx="18" fill="url(#panel)" stroke="#2c3a4c"/>

  <text x="76" y="104" fill="#d9c58c" font-family="Georgia, 'Times New Roman', serif" font-size="20" letter-spacing="4">BUILD</text>
  <text x="76" y="350" fill="#d9c58c" font-family="Georgia, 'Times New Roman', serif" font-size="20" letter-spacing="4">CONSTRAINTS</text>
  <text x="76" y="650" fill="#d9c58c" font-family="Georgia, 'Times New Roman', serif" font-size="20" letter-spacing="4">SEARCH</text>

  <text x="412" y="112" fill="#f2e8c8" font-family="Georgia, 'Times New Roman', serif" font-size="42" letter-spacing="2">Tarnished's Arsenal</text>
  <text x="412" y="148" fill="#9fb0c7" font-family="Segoe UI, Arial, sans-serif" font-size="18">War-room search for weapon, affinity, AoW, upgrade, and combat-stat paths.</text>

  <rect x="412" y="170" width="118" height="28" rx="14" fill="#1d2a17" stroke="#5c8b42"/>
  <text x="433" y="189" fill="#b9de8b" font-family="Segoe UI, Arial, sans-serif" font-size="14">CURRENT + N</text>
  <rect x="542" y="170" width="112" height="28" rx="14" fill="#1b212d" stroke="#8f6a24"/>
  <text x="566" y="189" fill="#d9c58c" font-family="Segoe UI, Arial, sans-serif" font-size="14">LOCKED</text>
  <rect x="666" y="170" width="128" height="28" rx="14" fill="#1b212d" stroke="#3d4a5c"/>
  <text x="693" y="189" fill="#b8c5d8" font-family="Segoe UI, Arial, sans-serif" font-size="14">TWO-HAND</text>

  <g transform="translate(1060 96)">
    <rect width="134" height="80" rx="12" fill="#0f151f" stroke="#2c3a4c"/>
    <text x="20" y="30" fill="#96a7be" font-family="Segoe UI, Arial, sans-serif" font-size="13">LEVEL</text>
    <text x="20" y="62" fill="#f2e8c8" font-family="Georgia, 'Times New Roman', serif" font-size="28">150</text>
  </g>
  <g transform="translate(1214 96)">
    <rect width="134" height="80" rx="12" fill="#0f151f" stroke="#2c3a4c"/>
    <text x="20" y="30" fill="#96a7be" font-family="Segoe UI, Arial, sans-serif" font-size="13">BUDGET</text>
    <text x="20" y="62" fill="#f2e8c8" font-family="Georgia, 'Times New Roman', serif" font-size="28">229</text>
  </g>
  <g transform="translate(1368 96)">
    <rect width="144" height="80" rx="12" fill="#0f151f" stroke="#2c3a4c"/>
    <text x="20" y="30" fill="#96a7be" font-family="Segoe UI, Arial, sans-serif" font-size="13">FREE</text>
    <text x="20" y="62" fill="#f2e8c8" font-family="Georgia, 'Times New Roman', serif" font-size="28">49</text>
  </g>

  <g transform="translate(76 132)" fill="#0b1119" stroke="#263244">
    <rect width="252" height="40" rx="10"/>
    <rect y="58" width="252" height="40" rx="10"/>
    <rect y="116" width="252" height="40" rx="10"/>
    <rect y="174" width="252" height="40" rx="10"/>
  </g>

  <g transform="translate(76 388)" fill="#0b1119" stroke="#263244">
    <rect width="252" height="42" rx="10"/>
    <rect y="58" width="252" height="42" rx="10"/>
    <rect y="116" width="252" height="42" rx="10"/>
    <rect y="174" width="252" height="42" rx="10"/>
  </g>

  <g transform="translate(76 688)">
    <rect width="252" height="44" rx="10" fill="#0b1119" stroke="#263244"/>
    <rect y="64" width="252" height="44" rx="10" fill="#1d2a17" stroke="#5c8b42"/>
    <rect y="144" width="252" height="62" rx="10" fill="#221b10" stroke="#8f6a24"/>
    <text x="26" y="173" fill="#f2e8c8" font-family="Georgia, 'Times New Roman', serif" font-size="22">SEARCH</text>
    <rect y="224" width="252" height="16" rx="8" fill="#0b1119" stroke="#263244"/>
    <rect y="224" width="176" height="16" rx="8" fill="url(#gold)"/>
  </g>

  <text x="412" y="288" fill="#d9c58c" font-family="Georgia, 'Times New Roman', serif" font-size="18" letter-spacing="4">RESULTS</text>
  <g transform="translate(412 316)">
    <g>
      <rect width="344" height="200" rx="16" fill="#121a25" stroke="#324155"/>
      <rect x="18" y="18" width="56" height="26" rx="13" fill="#221b10" stroke="#8f6a24"/>
      <text x="36" y="36" fill="#d9c58c" font-family="Segoe UI, Arial, sans-serif" font-size="13">#1</text>
      <text x="18" y="78" fill="#f2e8c8" font-family="Georgia, 'Times New Roman', serif" font-size="26">Bleed Uchi</text>
      <text x="18" y="108" fill="#9fb0c7" font-family="Segoe UI, Arial, sans-serif" font-size="15">Seppuku • Blood • +25</text>
      <rect x="18" y="126" width="308" height="18" rx="4" fill="#0a0e15"/>
      <text x="18" y="170" fill="#f2e8c8" font-family="Georgia, 'Times New Roman', serif" font-size="34">603 AR</text>
      <text x="18" y="194" fill="#d9c58c" font-family="Segoe UI, Arial, sans-serif" font-size="14">STR 18  DEX 50  ARC 45</text>
    </g>
    <g transform="translate(366 0)">
      <rect width="344" height="200" rx="16" fill="#121a25" stroke="#324155"/>
      <rect x="18" y="18" width="56" height="26" rx="13" fill="#141f2b" stroke="#54657c"/>
      <text x="36" y="36" fill="#b8c5d8" font-family="Segoe UI, Arial, sans-serif" font-size="13">#2</text>
      <text x="18" y="78" fill="#f2e8c8" font-family="Georgia, 'Times New Roman', serif" font-size="26">Occult Uchi</text>
      <text x="18" y="108" fill="#9fb0c7" font-family="Segoe UI, Arial, sans-serif" font-size="15">Seppuku • Occult • +25</text>
      <rect x="18" y="126" width="308" height="18" rx="4" fill="#0a0e15"/>
      <text x="18" y="170" fill="#f2e8c8" font-family="Georgia, 'Times New Roman', serif" font-size="34">581 AR</text>
      <text x="18" y="194" fill="#d9c58c" font-family="Segoe UI, Arial, sans-serif" font-size="14">STR 12  DEX 15  ARC 80</text>
    </g>
    <g transform="translate(732 0)">
      <rect width="344" height="200" rx="16" fill="#121a25" stroke="#324155"/>
      <rect x="18" y="18" width="56" height="26" rx="13" fill="#141f2b" stroke="#54657c"/>
      <text x="36" y="36" fill="#b8c5d8" font-family="Segoe UI, Arial, sans-serif" font-size="13">#3</text>
      <text x="18" y="78" fill="#f2e8c8" font-family="Georgia, 'Times New Roman', serif" font-size="26">Keen Uchi</text>
      <text x="18" y="108" fill="#9fb0c7" font-family="Segoe UI, Arial, sans-serif" font-size="15">Keen • +25</text>
      <rect x="18" y="126" width="308" height="18" rx="4" fill="#0a0e15"/>
      <text x="18" y="170" fill="#f2e8c8" font-family="Georgia, 'Times New Roman', serif" font-size="34">556 AR</text>
      <text x="18" y="194" fill="#d9c58c" font-family="Segoe UI, Arial, sans-serif" font-size="14">STR 18  DEX 65  ARC 8</text>
    </g>
  </g>

  <g transform="translate(412 548)">
    <rect width="1076" height="264" rx="16" fill="#0d131d" stroke="#2c3a4c"/>
    <text x="24" y="38" fill="#d9c58c" font-family="Georgia, 'Times New Roman', serif" font-size="18" letter-spacing="4">COMPARISON</text>
    <g transform="translate(24 58)">
      <rect width="500" height="74" rx="12" fill="#121a25" stroke="#324155"/>
      <text x="18" y="28" fill="#d9c58c" font-family="Segoe UI, Arial, sans-serif" font-size="13">SELECTED</text>
      <text x="18" y="54" fill="#f2e8c8" font-family="Georgia, 'Times New Roman', serif" font-size="26">Blood Uchi  •  Seppuku</text>
    </g>
    <g transform="translate(552 58)">
      <rect width="500" height="74" rx="12" fill="#121a25" stroke="#324155"/>
      <text x="18" y="28" fill="#d9c58c" font-family="Segoe UI, Arial, sans-serif" font-size="13">RIVAL</text>
      <text x="18" y="54" fill="#f2e8c8" font-family="Georgia, 'Times New Roman', serif" font-size="26">Occult Uchi  •  Seppuku</text>
    </g>
    <g transform="translate(24 156)">
      <rect width="1028" height="78" rx="12" fill="#101722" stroke="#263244"/>
      <path d="M28 56 L178 34 L328 46 L478 20 L628 32 L778 12 L928 26" fill="none" stroke="#d4b15a" stroke-width="4" stroke-linecap="round"/>
      <path d="M28 64 L178 52 L328 58 L478 40 L628 47 L778 31 L928 36" fill="none" stroke="#e07f45" stroke-width="4" stroke-linecap="round"/>
      <text x="20" y="24" fill="#9fb0c7" font-family="Segoe UI, Arial, sans-serif" font-size="13">AR path by level and upgrade checkpoint</text>
    </g>
  </g>
</svg>
